<svg xmlns="http://www.w3.org/2000/svg" width="1024" height="1024" viewBox="0 0 1024 1024">
  <defs>
    <linearGradient id="wind-upper" gradientUnits="userSpaceOnUse" x1="80" y1="0" x2="950" y2="0">
      <stop offset="0" stop-color="#FFFFFF" stop-opacity="0.7"/>
      <stop offset="1" stop-color="#FFFFFF" stop-opacity="1.0"/>
    </linearGradient>
  </defs>
  <path fill="url(#wind-upper)" d="M80.5,469.0C112.4,510.2 141.5,532.8 192.1,547.6C329.9,587.9 443.2,473.3 560.2,421.3C657.7,378.0 767.3,367.3 861.9,424.8C897.2,446.2 934.3,481.5 946.0,522.3C948.3,530.1 948.6,538.9 949.5,547.0C917.8,509.4 891.3,495.9 848.2,475.1C838.6,470.5 829.3,465.0 819.2,461.7C803.4,456.7 783.4,454.8 766.9,453.5C699.7,448.3 644.3,458.9 583.3,487.4C472.5,539.2 387.3,626.4 255.4,622.2C203.9,620.6 169.2,607.9 128.5,576.8C120.7,570.9 109.5,562.2 103.3,555.0C84.4,532.8 76.2,497.3 80.5,469.0Z"/>
</svg>
